<?xml version="1.0" standalone="no"?>
<!DOCTYPE svg PUBLIC "-//W3C//DTD SVG 20010904//EN"
 "http://www.w3.org/TR/2001/REC-SVG-20010904/DTD/svg10.dtd">
<svg version="1.0" xmlns="http://www.w3.org/2000/svg"
 width="1920.000000pt" height="1920.000000pt" viewBox="0 0 1920.000000 1920.000000"
 preserveAspectRatio="xMidYMid meet">

<g transform="translate(0.000000,1920.000000) scale(0.100000,-0.100000)"
fill="#000000" stroke="none">
<path d="M10140 18998 c0 -17 45 -125 85 -206 33 -66 84 -135 210 -287 91
-110 205 -247 253 -305 47 -58 118 -143 157 -190 39 -47 96 -116 127 -155 32
-38 67 -82 80 -96 13 -15 34 -41 48 -59 14 -19 42 -54 64 -79 64 -77 71 -85
94 -118 16 -22 19 -33 10 -36 -17 -6 -67 23 -70 42 -3 12 -6 11 -21 -4 -12
-12 -34 -18 -62 -19 -32 -1 -41 -4 -34 -13 7 -8 3 -13 -12 -18 -13 -4 -24 -2
-29 5 -8 14 -30 5 -30 -12 0 -5 22 -40 48 -77 55 -75 76 -111 69 -118 -3 -2
-38 -7 -79 -10 -56 -4 -78 -2 -88 8 -8 8 -49 34 -90 58 -41 25 -77 47 -80 50
-3 3 -24 19 -48 35 -59 40 -125 114 -245 275 -109 146 -147 223 -253 509 -49
132 -66 146 -44 35 7 -32 16 -78 20 -103 5 -25 23 -108 40 -185 17 -77 33
-153 37 -168 3 -16 12 -31 19 -34 15 -5 17 -90 3 -99 -5 -3 -4 -14 1 -25 8
-14 7 -27 -5 -49 -13 -24 -20 -29 -39 -24 -16 4 -25 0 -30 -12 -6 -15 -8 -15
-24 -1 -9 8 -28 17 -42 19 -20 2 -26 10 -31 38 -4 19 -7 -49 -8 -151 l-1 -186
25 5 c15 2 25 0 25 -7 0 -6 -6 -11 -12 -12 -7 0 -2 -5 12 -10 19 -8 21 -12 11
-18 -11 -7 -11 -14 0 -40 8 -17 20 -31 26 -31 7 0 13 -9 13 -21 0 -11 7 -27
15 -36 11 -11 13 -19 5 -28 -7 -9 -6 -16 3 -24 8 -6 16 -8 20 -5 8 8 29 -34
23 -45 -3 -5 1 -14 9 -21 8 -7 15 -21 15 -31 0 -11 9 -28 20 -39 12 -12 18
-25 15 -29 -2 -5 2 -11 10 -15 24 -9 17 -44 -17 -92 -28 -40 -39 -48 -59 -46
-4 1 -10 -9 -13 -22 -7 -29 -33 -41 -53 -25 -34 29 -21 -23 40 -161 49 -110
43 -108 -96 32 -163 165 -218 253 -361 578 -30 69 -61 125 -68 125 -7 0 -16
-18 -21 -40 -4 -22 -10 -52 -14 -68 -3 -15 -9 -30 -14 -33 -5 -3 -9 -13 -9
-23 0 -31 -24 -67 -42 -63 -12 2 -19 -5 -24 -22 -4 -19 -13 -26 -29 -26 -29 0
-85 31 -85 46 0 11 -22 24 -40 24 -4 0 -11 -10 -14 -22 -6 -22 -8 -21 -30 15
-27 43 -42 59 -33 35 8 -23 -13 -35 -27 -16 -6 8 -18 17 -26 21 -12 4 -11 6 3
6 9 1 17 6 17 12 0 7 -11 9 -29 6 -23 -5 -31 -1 -41 17 l-12 24 -39 -39 c-54
-54 -77 -51 -104 13 -13 32 -23 40 -67 53 -29 9 -77 19 -105 22 -51 6 -53 5
-64 -23 -6 -16 -11 -57 -11 -91 0 -58 -1 -63 -21 -64 -12 0 -39 -1 -60 -3 -33
-3 -42 2 -65 30 -27 35 -70 105 -99 164 -19 38 -37 60 -50 60 -4 0 -28 20 -53
45 -25 24 -49 44 -54 45 -5 0 -17 6 -25 14 -9 8 -47 31 -86 51 -38 21 -79 46
-91 56 -11 11 -24 19 -28 19 -5 0 -43 26 -85 58 -42 32 -83 61 -91 65 -13 6
-100 65 -125 85 -26 21 -35 23 -28 6 7 -19 -7 -14 -38 13 -9 8 -20 13 -25 12
-15 -4 -59 18 -73 35 -7 9 -19 16 -25 16 -6 0 -38 24 -71 54 -33 29 -69 56
-81 60 -12 3 -26 18 -32 31 -6 14 -16 25 -21 25 -5 0 -20 21 -34 48 -14 26
-50 85 -81 132 -46 71 -56 80 -56 58 0 -15 5 -30 10 -33 6 -3 10 -19 10 -36 0
-16 5 -29 10 -29 6 0 10 -14 10 -31 0 -28 2 -30 17 -18 15 13 16 11 10 -19 -4
-18 -3 -31 2 -28 12 8 71 -45 71 -64 0 -12 -2 -12 -9 -1 -6 10 -10 10 -16 1
-8 -13 22 -50 40 -50 7 0 21 -12 31 -27 10 -16 24 -35 33 -43 12 -13 124 -150
337 -415 27 -35 66 -81 85 -103 36 -41 43 -50 99 -122 19 -24 43 -53 53 -65
10 -11 33 -37 50 -59 18 -21 47 -55 65 -75 18 -20 40 -49 49 -66 9 -16 23 -35
31 -41 16 -12 9 -34 -11 -34 -7 0 -25 7 -41 15 -24 13 -31 13 -39 3 -6 -9 -7
-8 -3 5 5 16 -5 22 -28 18 -4 -1 -14 3 -21 9 -9 8 -14 3 -18 -19 -3 -16 -12
-29 -19 -28 -33 1 -48 -4 -48 -18 0 -15 77 -132 116 -175 34 -39 39 -66 12
-74 -55 -14 -76 -8 -236 72 -125 62 -204 143 -375 384 -26 37 -66 111 -88 165
-55 134 -139 359 -139 372 0 6 -5 11 -11 11 -7 0 -9 -10 -4 -27 4 -16 11 -50
15 -78 5 -27 18 -97 30 -155 33 -161 41 -218 43 -309 2 -74 4 -85 22 -92 15
-6 16 -8 4 -8 -20 -1 -31 -46 -19 -77 5 -12 6 -39 3 -61 -4 -29 1 -51 16 -82
12 -23 19 -46 16 -52 -4 -5 -1 -26 6 -47 7 -20 12 -50 10 -65 -1 -15 2 -34 9
-42 6 -7 13 -33 16 -57 3 -23 10 -60 15 -81 6 -24 7 -43 1 -50 -5 -7 -12 -29
-16 -50 -4 -23 -16 -43 -31 -53 -17 -11 -25 -26 -25 -44 0 -16 -15 -77 -34
-137 -19 -59 -37 -125 -41 -145 -8 -51 -25 -49 -113 10 -81 54 -93 71 -189
287 -35 77 -72 157 -83 178 -11 22 -20 45 -20 54 0 8 -5 11 -11 8 -6 -4 -8
-14 -4 -23 14 -38 15 -115 1 -131 -7 -9 -17 -26 -20 -38 -5 -14 -12 -20 -21
-16 -10 3 -18 -5 -25 -22 -9 -24 -14 -27 -41 -21 -20 4 -29 2 -28 -7 4 -36 -1
-40 -46 -35 -26 3 -45 1 -45 -4 0 -6 -11 -7 -24 -4 -18 4 -28 0 -41 -20 -13
-20 -19 -23 -31 -13 -8 6 -14 8 -14 5 0 -4 -9 -2 -19 4 -16 8 -22 7 -29 -6 -8
-14 -10 -14 -24 0 -12 11 -23 13 -46 7 -20 -6 -34 -5 -41 2 -8 8 -11 8 -11 -1
0 -12 20 -52 30 -62 3 -3 17 -28 32 -57 14 -28 45 -86 68 -128 23 -42 39 -79
37 -82 -11 -10 -136 39 -218 86 -47 27 -99 52 -117 56 -38 8 -40 11 -72 100
l-25 70 -54 -1 c-66 -2 -81 -14 -52 -45 11 -13 21 -26 21 -31 0 -4 20 -39 45
-78 25 -39 45 -77 45 -85 0 -8 5 -15 10 -15 6 0 10 -7 10 -15 0 -21 -19 -19
-27 3 -4 9 -19 30 -35 46 -15 17 -28 33 -28 37 0 5 -11 20 -25 35 -14 15 -25
33 -25 41 0 22 -126 142 -157 149 -15 4 -33 10 -38 15 -14 10 -42 -12 -46 -36
-3 -15 -17 -23 -59 -31 -49 -9 -60 -8 -108 13 -107 47 -150 92 -461 482 -68
86 -127 158 -130 161 -5 4 -111 129 -118 139 -2 2 -6 2 -9 -1 -3 -3 31 -77 75
-165 44 -87 119 -239 167 -338 47 -99 94 -196 105 -216 10 -20 19 -47 19 -60
1 -27 21 -59 38 -59 6 0 14 -24 18 -52 4 -29 9 -47 11 -40 7 19 33 14 33 -7 0
-11 9 -23 21 -26 12 -4 18 -12 15 -21 -3 -8 1 -14 9 -14 8 0 15 -7 15 -15 0
-8 5 -15 10 -15 6 0 10 -7 10 -15 0 -8 5 -15 10 -15 6 0 10 -7 10 -15 0 -8 5
-15 10 -15 6 0 10 -4 10 -9 0 -5 31 -60 69 -122 38 -63 67 -116 64 -119 -2 -3
-9 3 -14 12 -12 21 -105 88 -123 88 -8 0 -17 8 -19 18 -3 9 -4 5 -4 -11 1 -18
6 -26 14 -23 15 6 15 9 4 -31 -7 -23 -5 -37 5 -50 7 -10 14 -30 14 -44 0 -14
20 -84 45 -155 57 -162 74 -243 67 -319 -6 -69 -22 -88 -95 -105 -63 -16 -83
-10 -171 56 -81 60 -150 146 -336 414 -90 131 -96 142 -167 340 -40 113 -78
215 -83 228 -42 95 -49 91 -25 -15 34 -157 37 -173 32 -186 -2 -6 -1 -39 4
-72 6 -40 5 -69 -3 -88 -9 -23 -8 -31 7 -47 18 -19 17 -21 -10 -45 -24 -20
-26 -25 -13 -30 26 -10 10 -38 -18 -32 -24 4 -29 -4 -26 -44 1 -9 -8 -19 -19
-22 -11 -3 -23 -15 -26 -26 -3 -12 -12 -21 -20 -21 -12 0 -14 -7 -10 -30 5
-22 3 -30 -8 -30 -18 0 -23 -10 -38 -67 -15 -59 -3 -128 28 -158 27 -25 146
-167 246 -294 86 -108 85 -102 26 -201 l-33 -55 -135 -11 c-150 -13 -142 -16
-183 59 -14 26 -37 66 -50 90 -13 23 -41 76 -63 117 -98 186 -102 190 -156
179 -23 -5 -103 -18 -177 -29 -74 -12 -178 -30 -229 -40 -69 -14 -98 -16 -108
-8 -10 8 -13 6 -13 -6 0 -10 -13 -37 -30 -61 -16 -24 -30 -48 -30 -53 0 -22
-26 -32 -53 -19 -15 6 -27 15 -27 20 0 4 -6 7 -13 7 -33 0 -54 39 -67 122 -6
45 -19 121 -27 168 -8 47 -17 102 -20 123 -7 44 -11 47 -78 62 -81 18 -92 67
-55 250 26 128 36 215 23 215 -5 0 -29 -13 -54 -28 -24 -15 -89 -49 -144 -76
-83 -40 -163 -90 -185 -116 -3 -4 -25 -20 -50 -37 -25 -17 -76 -59 -114 -94
-38 -35 -78 -70 -90 -78 -12 -8 -28 -22 -36 -31 -22 -23 -142 -132 -172 -155
-31 -24 -135 -117 -199 -177 -68 -63 -248 -221 -273 -238 -11 -8 -35 -28 -51
-45 -17 -16 -55 -50 -85 -75 -62 -51 -175 -155 -235 -216 -63 -64 -198 -214
-215 -238 -8 -11 -52 -59 -97 -106 l-83 -85 -1 -335 c-1 -480 -2 -493 -49
-640 -15 -46 -47 -163 -95 -340 -26 -96 -51 -184 -55 -195 -5 -11 -15 -47 -23
-80 -27 -109 -57 -220 -68 -247 -10 -24 -7 -33 27 -80 21 -29 41 -55 44 -58 3
-3 10 -12 15 -22 9 -15 120 -163 150 -200 55 -68 56 -83 7 -273 -16 -66 -44
-183 -62 -260 -18 -77 -46 -192 -62 -255 -16 -63 -34 -133 -38 -155 -5 -22
-13 -58 -18 -80 -25 -104 -44 -185 -58 -242 l-15 -61 76 -109 c42 -59 108
-153 147 -208 l71 -100 1 -365 c1 -317 -1 -372 -16 -415 -9 -27 -22 -70 -28
-95 -6 -25 -15 -58 -20 -75 -4 -16 -14 -55 -20 -85 -7 -30 -19 -75 -26 -100
-7 -25 -16 -63 -19 -85 -6 -38 -28 -114 -46 -163 -5 -13 -9 -32 -9 -43 0 -10
-4 -27 -9 -37 -13 -26 -84 -311 -89 -359 -3 -34 4 -56 37 -120 23 -43 41 -84
41 -90 0 -6 3 -13 8 -15 4 -1 50 -88 102 -193 l95 -190 0 -730 c0 -587 -3
-737 -13 -765 -15 -37 -28 -85 -116 -420 -44 -168 -56 -214 -65 -240 -5 -14
-14 -50 -21 -80 -7 -30 -28 -111 -46 -180 l-34 -124 45 -79 c25 -44 45 -84 45
-88 0 -5 5 -9 10 -9 6 0 10 -5 10 -10 0 -6 11 -29 26 -51 30 -48 59 -99 88
-154 12 -22 27 -46 34 -53 7 -8 20 -30 28 -50 14 -33 15 -112 10 -717 -3 -374
-2 -685 2 -691 13 -19 42 -26 222 -55 30 -4 84 -13 120 -19 130 -23 166 -29
235 -39 68 -10 176 -28 300 -51 33 -6 92 -15 130 -21 91 -14 155 -24 235 -39
77 -14 142 -25 230 -38 57 -9 165 -29 335 -61 53 -11 144 -26 295 -51 30 -5
78 -13 105 -19 28 -5 79 -14 115 -20 36 -6 88 -15 115 -20 109 -19 353 -63
405 -72 30 -6 82 -14 115 -20 33 -5 85 -14 115 -19 30 -5 80 -14 110 -20 30
-5 80 -14 110 -19 30 -5 107 -19 170 -30 63 -11 156 -27 205 -36 151 -27 271
-48 375 -63 36 -6 110 -19 165 -30 55 -11 183 -34 285 -52 102 -17 235 -40
295 -51 61 -10 139 -24 175 -30 36 -6 110 -19 165 -30 55 -10 165 -30 245 -43
80 -14 186 -32 235 -42 50 -9 113 -20 140 -24 28 -5 88 -16 135 -24 47 -9 117
-21 155 -26 39 -6 77 -13 85 -15 8 -3 94 -18 190 -35 96 -16 225 -39 285 -50
61 -11 200 -35 310 -54 227 -39 685 -121 760 -135 68 -14 155 -28 245 -42 41
-6 120 -19 175 -29 90 -17 244 -45 395 -72 30 -5 78 -14 105 -19 28 -5 79 -13
115 -19 36 -5 94 -14 130 -20 36 -6 97 -15 135 -20 39 -5 86 -14 105 -19 19
-6 76 -18 125 -27 50 -9 113 -20 140 -26 28 -5 77 -13 110 -18 33 -6 85 -14
115 -20 30 -5 82 -14 115 -19 33 -5 74 -12 90 -15 17 -3 75 -13 130 -21 55 -9
132 -23 170 -31 39 -9 95 -20 125 -25 30 -6 80 -14 110 -20 30 -5 82 -14 115
-19 33 -6 83 -14 110 -20 52 -10 75 -13 190 -31 39 -6 104 -17 145 -24 41 -8
89 -16 105 -19 17 -3 53 -10 80 -16 28 -6 77 -15 110 -21 33 -5 85 -13 115
-19 30 -5 82 -14 115 -19 33 -6 89 -15 125 -21 85 -15 139 -24 290 -49 125
-21 136 -23 220 -42 25 -6 72 -14 105 -20 33 -5 87 -14 120 -19 33 -6 85 -15
115 -19 30 -5 82 -14 115 -20 33 -7 101 -19 150 -27 50 -8 115 -19 145 -25 30
-6 80 -14 110 -19 30 -5 78 -14 105 -19 83 -17 147 -28 200 -35 28 -4 68 -11
90 -16 22 -5 67 -13 100 -19 33 -6 112 -20 175 -32 116 -22 172 -31 290 -49
36 -6 88 -14 115 -20 78 -15 165 -30 230 -40 33 -6 83 -14 110 -19 90 -18 339
-62 375 -67 19 -3 58 -9 85 -14 28 -5 79 -14 115 -20 36 -6 83 -15 105 -20 22
-5 74 -14 115 -20 41 -7 107 -18 145 -26 146 -28 296 -54 430 -74 70 -11 171
-28 235 -40 25 -5 70 -14 100 -19 30 -5 93 -17 140 -26 134 -27 190 -29 296
-11 112 20 145 33 203 82 l41 36 0 341 c0 361 -1 372 -50 467 -11 21 -56 71
-101 112 -130 117 -201 191 -214 223 -10 23 -12 221 -10 890 2 473 7 868 10
877 4 10 22 20 43 23 89 14 191 35 216 44 14 6 45 30 68 53 l41 41 -7 126
c-10 209 -42 621 -52 664 -7 31 -33 60 -140 155 -116 104 -104 -18 -104 1085
0 845 2 966 15 977 8 7 45 19 82 26 38 8 79 23 93 32 42 31 117 148 124 194 4
24 2 158 -5 298 -15 334 -27 372 -151 488 -96 88 -124 117 -141 142 -16 22
-17 110 -17 1101 0 1030 1 1077 18 1092 10 10 33 17 50 17 17 0 41 4 54 9 13
5 34 12 48 15 23 5 46 20 107 71 l25 20 0 635 1 635 -34 75 c-18 41 -52 102
-76 135 -24 33 -87 123 -139 199 -53 76 -103 146 -110 155 -7 9 -40 54 -73
101 -34 47 -69 96 -78 110 -24 32 -71 88 -108 125 -40 42 -402 419 -545 569
-198 208 -384 400 -410 424 -35 32 -65 37 -96 17 l-26 -17 -92 94 c-96 97
-164 170 -411 432 -362 385 -375 399 -405 412 -14 6 -72 31 -130 55 -90 38
-113 52 -165 105 -85 86 -546 563 -695 719 -246 257 -281 289 -345 315 -187
74 -184 71 -431 326 -308 319 -327 338 -494 515 -175 186 -280 288 -300 293
-8 3 -54 16 -101 31 l-86 26 -134 137 c-74 75 -184 189 -245 252 -61 63 -169
176 -241 250 -298 308 -344 359 -408 445 -36 50 -73 98 -81 108 -8 9 -14 28
-14 42 0 13 -4 27 -10 30 -5 3 -10 15 -10 26 0 10 -4 19 -10 19 -5 0 -10 7
-10 15 0 8 -8 29 -18 47 -10 18 -36 66 -57 106 -21 39 -42 72 -47 72 -4 0 -8
5 -8 11 0 11 -24 39 -34 39 -5 0 -36 28 -137 122 -27 25 -157 119 -200 144
-10 6 -27 18 -37 27 -10 10 -24 17 -30 17 -7 0 -12 4 -12 9 0 9 -64 54 -129
91 -14 9 -33 20 -41 25 -8 5 -24 8 -36 7 -19 -3 -134 49 -161 73 -6 5 -28 21
-48 35 -71 49 -186 147 -223 190 -20 24 -79 107 -129 184 -51 78 -93 138 -93
134z m155 -1538 c3 -5 1 -10 -4 -10 -6 0 -11 5 -11 10 0 6 2 10 4 10 3 0 8 -4
11 -10z m1005 -10 c0 -5 -2 -10 -4 -10 -3 0 -8 5 -11 10 -3 6 -1 10 4 10 6 0
11 -4 11 -10z m-1130 -75 c-7 -9 -15 -13 -17 -11 -7 7 7 26 19 26 6 0 6 -6 -2
-15z m8 -67 c-6 -18 -28 -21 -28 -4 0 9 7 16 16 16 9 0 14 -5 12 -12z m1452
-293 c16 -36 21 -83 11 -89 -5 -3 -19 6 -30 20 -17 22 -21 40 -20 98 l0 71 15
-40 c9 -22 20 -49 24 -60z m-2153 -67 c-3 -8 -6 -5 -6 6 -1 11 2 17 5 13 3 -3
4 -12 1 -19z m-4707 -1803 c0 -8 -2 -15 -4 -15 -2 0 -6 7 -10 15 -3 8 -1 15 4
15 6 0 10 -7 10 -15z"/>
<path d="M10171 18344 c0 -11 3 -14 6 -6 3 7 2 16 -1 19 -3 4 -6 -2 -5 -13z"/>
<path d="M8558 17605 c-3 -3 -25 -9 -49 -15 -97 -20 -214 -52 -222 -59 -4 -4
39 -39 95 -77 121 -81 118 -80 118 -61 0 15 29 93 61 164 10 23 15 45 10 47
-4 3 -10 3 -13 1z"/>
<path d="M7411 17564 c0 -11 3 -14 6 -6 3 7 2 16 -1 19 -3 4 -6 -2 -5 -13z"/>
<path d="M4972 16970 c0 -75 1 -81 10 -47 7 25 7 53 0 85 -9 45 -10 43 -10
-38z"/>
<path d="M5066 17013 c-5 -5 3 -13 100 -98 25 -22 63 -56 84 -75 20 -19 59
-54 86 -76 27 -23 63 -55 79 -70 17 -16 80 -74 140 -129 61 -54 151 -138 200
-185 211 -199 237 -222 251 -216 9 3 14 20 14 44 0 30 -14 60 -68 143 -41 63
-83 114 -105 129 l-37 25 0 87 c0 48 5 90 10 93 18 11 11 45 -9 45 -11 0 -23
-4 -26 -10 -3 -5 -15 -10 -26 -10 -10 0 -27 -4 -37 -9 -66 -34 -139 -39 -168
-13 -11 9 -27 22 -36 27 -75 49 -103 69 -106 76 -2 5 -12 9 -22 9 -10 0 -25 8
-32 18 -17 23 -66 44 -81 35 -8 -5 -8 -2 0 9 15 18 5 32 -12 18 -17 -14 -45
-2 -45 19 0 10 -9 17 -21 18 -12 1 -35 15 -51 30 -68 65 -76 72 -82 66z"/>
<path d="M9550 16971 c0 -12 39 -21 45 -11 3 4 -2 11 -11 14 -22 8 -34 7 -34
-3z"/>
<path d="M5001 16894 c0 -11 3 -14 6 -6 3 7 2 16 -1 19 -3 4 -6 -2 -5 -13z"/>
</g>
</svg>
